<svg xmlns="http://www.w3.org/2000/svg" viewBox="0 0 1000 800">
<defs>
<radialGradient id="bgGrad" cx="50%" cy="50%" r="50%"><stop offset="0%" stop-color="#111820"/><stop offset="50%" stop-color="#0a0e14"/><stop offset="100%" stop-color="#06080c"/></radialGradient>
<filter id="nodeGlow" x="-50%" y="-50%" width="200%" height="200%"><feGaussianBlur stdDeviation="6" result="blur"/><feMerge><feMergeNode in="blur"/><feMergeNode in="SourceGraphic"/></feMerge></filter>
<filter id="softGlow" x="-50%" y="-50%" width="200%" height="200%"><feGaussianBlur stdDeviation="12"/></filter>
<filter id="churnPulse" x="-50%" y="-50%" width="200%" height="200%"><feGaussianBlur stdDeviation="4" result="blur"/><feMerge><feMergeNode in="blur"/><feMergeNode in="SourceGraphic"/></feMerge></filter>
</defs>
<rect width="1000" height="800" fill="url(#bgGrad)"/>
<circle cx="29.4" cy="524.1" r="1.0" fill="#c9d1d9" opacity="0.5"/>
<circle cx="799.1" cy="491.9" r="0.4" fill="#c9d1d9" opacity="0.4"/>
<circle cx="41.2" cy="30.6" r="0.3" fill="#c9d1d9" opacity="0.2"/>
<circle cx="674.5" cy="491.1" r="0.8" fill="#c9d1d9" opacity="0.5"/>
<circle cx="50.9" cy="701.3" r="0.4" fill="#c9d1d9" opacity="0.3"/>
<circle cx="763.7" cy="726.6" r="0.7" fill="#c9d1d9" opacity="0.5"/>
<circle cx="611.3" cy="244.0" r="0.8" fill="#c9d1d9" opacity="0.3"/>
<circle cx="15.0" cy="237.6" r="0.9" fill="#c9d1d9" opacity="0.4"/>
<circle cx="894.3" cy="292.6" r="1.0" fill="#c9d1d9" opacity="0.2"/>
<circle cx="914.9" cy="110.5" r="0.9" fill="#c9d1d9" opacity="0.3"/>
<circle cx="473.6" cy="199.8" r="0.4" fill="#c9d1d9" opacity="0.3"/>
<circle cx="177.6" cy="124.8" r="1.1" fill="#c9d1d9" opacity="0.3"/>
<circle cx="287.5" cy="124.6" r="0.7" fill="#c9d1d9" opacity="0.3"/>
<circle cx="678.8" cy="693.7" r="0.6" fill="#c9d1d9" opacity="0.4"/>
<circle cx="565.6" cy="584.6" r="0.7" fill="#c9d1d9" opacity="0.5"/>
<circle cx="526.7" cy="453.6" r="1.1" fill="#c9d1d9" opacity="0.3"/>
<circle cx="449.4" cy="537.9" r="1.0" fill="#c9d1d9" opacity="0.3"/>
<circle cx="716.9" cy="748.4" r="0.7" fill="#c9d1d9" opacity="0.2"/>
<circle cx="878.6" cy="692.7" r="0.4" fill="#c9d1d9" opacity="0.4"/>
<circle cx="744.6" cy="638.9" r="1.1" fill="#c9d1d9" opacity="0.4"/>
<circle cx="504.8" cy="727.8" r="0.9" fill="#c9d1d9" opacity="0.4"/>
<circle cx="226.2" cy="64.8" r="0.9" fill="#c9d1d9" opacity="0.5"/>
<circle cx="332.3" cy="436.7" r="0.6" fill="#c9d1d9" opacity="0.4"/>
<circle cx="619.2" cy="510.8" r="1.2" fill="#c9d1d9" opacity="0.1"/>
<circle cx="929.3" cy="22.4" r="1.0" fill="#c9d1d9" opacity="0.2"/>
<circle cx="636.1" cy="9.6" r="0.4" fill="#c9d1d9" opacity="0.3"/>
<circle cx="517.8" cy="454.3" r="1.2" fill="#c9d1d9" opacity="0.5"/>
<circle cx="927.6" cy="465.5" r="0.9" fill="#c9d1d9" opacity="0.5"/>
<circle cx="543.2" cy="549.9" r="0.4" fill="#c9d1d9" opacity="0.1"/>
<circle cx="786.2" cy="413.9" r="0.7" fill="#c9d1d9" opacity="0.1"/>
<circle cx="418.5" cy="110.1" r="1.0" fill="#c9d1d9" opacity="0.1"/>
<circle cx="25.9" cy="72.5" r="1.2" fill="#c9d1d9" opacity="0.4"/>
<circle cx="361.6" cy="357.7" r="0.4" fill="#c9d1d9" opacity="0.2"/>
<circle cx="278.0" cy="404.4" r="1.0" fill="#c9d1d9" opacity="0.3"/>
<circle cx="934.4" cy="399.5" r="0.5" fill="#c9d1d9" opacity="0.2"/>
<circle cx="313.7" cy="588.1" r="0.4" fill="#c9d1d9" opacity="0.1"/>
<circle cx="565.8" cy="2.2" r="0.8" fill="#c9d1d9" opacity="0.5"/>
<circle cx="707.3" cy="285.2" r="0.9" fill="#c9d1d9" opacity="0.4"/>
<circle cx="138.6" cy="639.2" r="1.0" fill="#c9d1d9" opacity="0.5"/>
<circle cx="311.9" cy="77.6" r="0.9" fill="#c9d1d9" opacity="0.5"/>
<circle cx="775.9" cy="785.9" r="0.8" fill="#c9d1d9" opacity="0.5"/>
<circle cx="660.2" cy="257.1" r="1.2" fill="#c9d1d9" opacity="0.5"/>
<circle cx="762.2" cy="554.5" r="0.6" fill="#c9d1d9" opacity="0.3"/>
<circle cx="755.4" cy="444.4" r="0.5" fill="#c9d1d9" opacity="0.3"/>
<circle cx="936.1" cy="496.7" r="0.4" fill="#c9d1d9" opacity="0.3"/>
<circle cx="195.6" cy="259.8" r="0.7" fill="#c9d1d9" opacity="0.3"/>
<circle cx="131.3" cy="414.8" r="0.5" fill="#c9d1d9" opacity="0.2"/>
<circle cx="144.0" cy="14.5" r="0.4" fill="#c9d1d9" opacity="0.2"/>
<circle cx="275.2" cy="727.4" r="0.8" fill="#c9d1d9" opacity="0.3"/>
<circle cx="863.0" cy="757.2" r="0.7" fill="#c9d1d9" opacity="0.2"/>
<circle cx="778.8" cy="447.2" r="0.8" fill="#c9d1d9" opacity="0.1"/>
<circle cx="428.7" cy="248.7" r="1.0" fill="#c9d1d9" opacity="0.1"/>
<circle cx="508.5" cy="161.5" r="1.0" fill="#c9d1d9" opacity="0.4"/>
<circle cx="567.6" cy="309.0" r="0.5" fill="#c9d1d9" opacity="0.2"/>
<circle cx="176.7" cy="530.3" r="0.5" fill="#c9d1d9" opacity="0.2"/>
<circle cx="728.4" cy="101.5" r="0.6" fill="#c9d1d9" opacity="0.2"/>
<circle cx="114.7" cy="279.9" r="0.9" fill="#c9d1d9" opacity="0.2"/>
<circle cx="708.3" cy="238.3" r="0.4" fill="#c9d1d9" opacity="0.4"/>
<circle cx="752.0" cy="420.0" r="0.8" fill="#c9d1d9" opacity="0.2"/>
<circle cx="800.5" cy="720.2" r="0.4" fill="#c9d1d9" opacity="0.4"/>
<g data-module="Cadmus.plugins">
<circle cx="500.0" cy="325.5" r="52.5" fill="#2ea04355" opacity="0.1" filter="url(#softGlow)"/>
<circle cx="500.0" cy="325.5" r="21.0" fill="none" stroke="#bc8cff" stroke-width="1.5" opacity="0.4" filter="url(#churnPulse)"><animate attributeName="r" values="21.0;25.0;21.0" dur="3s" repeatCount="indefinite"/><animate attributeName="opacity" values="0.4;0.1;0.4" dur="3s" repeatCount="indefinite"/></circle>
<circle cx="501.0" cy="326.5" r="21.0" fill="#000000" opacity="0.3"/>
<circle cx="500.0" cy="325.5" r="21.0" fill="#2ea043" filter="url(#nodeGlow)"/>
<circle cx="500.0" cy="319.2" r="12.6" fill="#56d364" opacity="0.15"/>
<circle cx="496.9" cy="318.2" r="4.2" fill="#ffffff" opacity="0.08"/>
<circle cx="495.0" cy="318.6" r="2.5" fill="#1b1f23" opacity="0.7"/>
<circle cx="506.1" cy="329.1" r="2.6" fill="#1b1f23" opacity="0.7"/>
<circle cx="512.3" cy="333.1" r="1.7" fill="#1b1f23" opacity="0.7"/>
<circle cx="503.9" cy="328.1" r="1.5" fill="#1b1f23" opacity="0.7"/>
<circle cx="496.5" cy="333.8" r="2.8" fill="#1b1f23" opacity="0.7"/>
<circle cx="499.8" cy="325.3" r="1.7" fill="#1b1f23" opacity="0.7"/>
<circle cx="497.4" cy="320.6" r="2.3" fill="#1b1f23" opacity="0.7"/>
<circle cx="502.0" cy="334.2" r="1.6" fill="#1b1f23" opacity="0.7"/>
<text x="500.0" y="325.5" font-family="monospace" font-size="11" font-weight="700" fill="#c9d1d9" text-anchor="middle" dy="0.35em">plugins</text>
<text x="500.0" y="360.5" font-family="monospace" font-size="7" fill="#484f58" text-anchor="middle" dy="0.35em">6594 loc</text>
</g>
<g data-module="MTL_Tools.resources">
<circle cx="547.9" cy="342.9" r="52.5" fill="#2ea04355" opacity="0.1" filter="url(#softGlow)"/>
<circle cx="547.9" cy="342.9" r="21.0" fill="none" stroke="#bc8cff" stroke-width="1.5" opacity="0.4" filter="url(#churnPulse)"><animate attributeName="r" values="21.0;25.0;21.0" dur="3s" repeatCount="indefinite"/><animate attributeName="opacity" values="0.4;0.1;0.4" dur="3s" repeatCount="indefinite"/></circle>
<circle cx="548.9" cy="343.9" r="21.0" fill="#000000" opacity="0.3"/>
<circle cx="547.9" cy="342.9" r="21.0" fill="#2ea043" filter="url(#nodeGlow)"/>
<circle cx="547.9" cy="336.6" r="12.6" fill="#56d364" opacity="0.15"/>
<circle cx="544.7" cy="335.6" r="4.2" fill="#ffffff" opacity="0.08"/>
<circle cx="547.3" cy="331.3" r="1.5" fill="#1b1f23" opacity="0.7"/>
<circle cx="550.3" cy="342.4" r="1.7" fill="#1b1f23" opacity="0.7"/>
<circle cx="548.4" cy="343.5" r="1.9" fill="#1b1f23" opacity="0.7"/>
<circle cx="543.1" cy="331.0" r="2.9" fill="#1b1f23" opacity="0.7"/>
<circle cx="541.5" cy="352.7" r="2.0" fill="#1b1f23" opacity="0.7"/>
<circle cx="548.7" cy="338.0" r="2.8" fill="#1b1f23" opacity="0.7"/>
<circle cx="560.9" cy="343.1" r="1.9" fill="#1b1f23" opacity="0.7"/>
<circle cx="554.2" cy="350.4" r="2.6" fill="#1b1f23" opacity="0.7"/>
<text x="547.9" y="342.9" font-family="monospace" font-size="11" font-weight="700" fill="#c9d1d9" text-anchor="middle" dy="0.35em">resources</text>
<text x="547.9" y="377.9" font-family="monospace" font-size="7" fill="#484f58" text-anchor="middle" dy="0.35em">5675 loc</text>
</g>
<g data-module="MTL_Tools.utils">
<circle cx="573.4" cy="387.1" r="52.5" fill="#2ea04355" opacity="0.1" filter="url(#softGlow)"/>
<circle cx="573.4" cy="387.1" r="21.0" fill="none" stroke="#bc8cff" stroke-width="1.5" opacity="0.4" filter="url(#churnPulse)"><animate attributeName="r" values="21.0;25.0;21.0" dur="3s" repeatCount="indefinite"/><animate attributeName="opacity" values="0.4;0.1;0.4" dur="3s" repeatCount="indefinite"/></circle>
<circle cx="574.4" cy="388.1" r="21.0" fill="#000000" opacity="0.3"/>
<circle cx="573.4" cy="387.1" r="21.0" fill="#2ea043" filter="url(#nodeGlow)"/>
<circle cx="573.4" cy="380.8" r="12.6" fill="#56d364" opacity="0.15"/>
<circle cx="570.2" cy="379.7" r="4.2" fill="#ffffff" opacity="0.08"/>
<circle cx="577.1" cy="395.8" r="2.8" fill="#1b1f23" opacity="0.7"/>
<circle cx="562.3" cy="383.3" r="2.2" fill="#1b1f23" opacity="0.7"/>
<circle cx="574.4" cy="382.7" r="2.4" fill="#1b1f23" opacity="0.7"/>
<circle cx="574.8" cy="399.4" r="2.9" fill="#1b1f23" opacity="0.7"/>
<circle cx="575.1" cy="380.8" r="1.5" fill="#1b1f23" opacity="0.7"/>
<circle cx="583.8" cy="388.7" r="2.2" fill="#1b1f23" opacity="0.7"/>
<circle cx="571.9" cy="386.2" r="2.6" fill="#1b1f23" opacity="0.7"/>
<circle cx="567.2" cy="376.6" r="2.3" fill="#1b1f23" opacity="0.7"/>
<text x="573.4" y="387.1" font-family="monospace" font-size="11" font-weight="700" fill="#c9d1d9" text-anchor="middle" dy="0.35em">utils</text>
<text x="573.4" y="422.1" font-family="monospace" font-size="7" fill="#484f58" text-anchor="middle" dy="0.35em">4042 loc</text>
</g>
<g data-module="MTL_Tools.core">
<circle cx="564.5" cy="437.2" r="52.5" fill="#2ea04355" opacity="0.1" filter="url(#softGlow)"/>
<circle cx="564.5" cy="437.2" r="21.0" fill="none" stroke="#bc8cff" stroke-width="1.5" opacity="0.4" filter="url(#churnPulse)"><animate attributeName="r" values="21.0;25.0;21.0" dur="3s" repeatCount="indefinite"/><animate attributeName="opacity" values="0.4;0.1;0.4" dur="3s" repeatCount="indefinite"/></circle>
<circle cx="565.5" cy="438.2" r="21.0" fill="#000000" opacity="0.3"/>
<circle cx="564.5" cy="437.2" r="21.0" fill="#2ea043" filter="url(#nodeGlow)"/>
<circle cx="564.5" cy="430.9" r="12.6" fill="#56d364" opacity="0.15"/>
<circle cx="561.4" cy="429.9" r="4.2" fill="#ffffff" opacity="0.08"/>
<circle cx="574.6" cy="435.4" r="2.9" fill="#1b1f23" opacity="0.7"/>
<circle cx="557.6" cy="438.0" r="2.0" fill="#1b1f23" opacity="0.7"/>
<circle cx="576.8" cy="437.7" r="2.7" fill="#1b1f23" opacity="0.7"/>
<circle cx="563.9" cy="436.5" r="1.5" fill="#1b1f23" opacity="0.7"/>
<circle cx="564.6" cy="437.2" r="2.1" fill="#1b1f23" opacity="0.7"/>
<circle cx="562.1" cy="437.2" r="2.0" fill="#1b1f23" opacity="0.7"/>
<circle cx="571.6" cy="440.1" r="2.9" fill="#1b1f23" opacity="0.7"/>
<circle cx="568.1" cy="435.4" r="1.7" fill="#1b1f23" opacity="0.7"/>
<text x="564.5" y="437.2" font-family="monospace" font-size="11" font-weight="700" fill="#c9d1d9" text-anchor="middle" dy="0.35em">core</text>
<text x="564.5" y="472.2" font-family="monospace" font-size="7" fill="#484f58" text-anchor="middle" dy="0.35em">3562 loc</text>
</g>
<g data-module="MTL_Tools.processing">
<circle cx="525.5" cy="470.0" r="52.5" fill="#2ea04355" opacity="0.1" filter="url(#softGlow)"/>
<circle cx="526.5" cy="471.0" r="21.0" fill="#000000" opacity="0.3"/>
<circle cx="525.5" cy="470.0" r="21.0" fill="#2ea043" filter="url(#nodeGlow)"/>
<circle cx="525.5" cy="463.7" r="12.6" fill="#56d364" opacity="0.15"/>
<circle cx="522.3" cy="462.6" r="4.2" fill="#ffffff" opacity="0.08"/>
<circle cx="529.1" cy="470.1" r="2.8" fill="#1b1f23" opacity="0.7"/>
<circle cx="526.0" cy="469.8" r="2.6" fill="#1b1f23" opacity="0.7"/>
<circle cx="525.4" cy="469.8" r="2.3" fill="#1b1f23" opacity="0.7"/>
<circle cx="519.0" cy="467.7" r="2.6" fill="#1b1f23" opacity="0.7"/>
<circle cx="522.6" cy="469.7" r="1.8" fill="#1b1f23" opacity="0.7"/>
<circle cx="524.2" cy="469.8" r="2.0" fill="#1b1f23" opacity="0.7"/>
<circle cx="512.3" cy="469.0" r="2.2" fill="#1b1f23" opacity="0.7"/>
<circle cx="526.1" cy="470.4" r="2.0" fill="#1b1f23" opacity="0.7"/>
<text x="525.5" y="470.0" font-family="monospace" font-size="11" font-weight="700" fill="#c9d1d9" text-anchor="middle" dy="0.35em">processin..</text>
<text x="525.5" y="505.0" font-family="monospace" font-size="7" fill="#484f58" text-anchor="middle" dy="0.35em">1548 loc</text>
</g>
<g data-module="MTL_Tools.mtl_tools_plugin">
<circle cx="474.5" cy="470.0" r="52.5" fill="#2ea04355" opacity="0.1" filter="url(#softGlow)"/>
<circle cx="475.5" cy="471.0" r="21.0" fill="#000000" opacity="0.3"/>
<circle cx="474.5" cy="470.0" r="21.0" fill="#2ea043" filter="url(#nodeGlow)"/>
<circle cx="474.5" cy="463.7" r="12.6" fill="#56d364" opacity="0.15"/>
<circle cx="471.4" cy="462.6" r="4.2" fill="#ffffff" opacity="0.08"/>
<circle cx="474.3" cy="468.8" r="2.3" fill="#1b1f23" opacity="0.7"/>
<circle cx="477.6" cy="476.6" r="2.3" fill="#1b1f23" opacity="0.7"/>
<circle cx="484.2" cy="469.9" r="2.7" fill="#1b1f23" opacity="0.7"/>
<circle cx="484.9" cy="477.2" r="2.4" fill="#1b1f23" opacity="0.7"/>
<circle cx="471.5" cy="471.9" r="2.8" fill="#1b1f23" opacity="0.7"/>
<circle cx="475.0" cy="470.2" r="2.6" fill="#1b1f23" opacity="0.7"/>
<circle cx="469.5" cy="462.8" r="2.0" fill="#1b1f23" opacity="0.7"/>
<circle cx="475.6" cy="470.5" r="2.6" fill="#1b1f23" opacity="0.7"/>
<text x="474.5" y="470.0" font-family="monospace" font-size="11" font-weight="700" fill="#c9d1d9" text-anchor="middle" dy="0.35em">mtl_tools..</text>
<text x="474.5" y="505.0" font-family="monospace" font-size="7" fill="#484f58" text-anchor="middle" dy="0.35em">658 loc</text>
</g>
<g data-module="MTL_Tools.Api">
<circle cx="435.5" cy="437.2" r="52.5" fill="#2ea04355" opacity="0.1" filter="url(#softGlow)"/>
<circle cx="436.5" cy="438.2" r="21.0" fill="#000000" opacity="0.3"/>
<circle cx="435.5" cy="437.2" r="21.0" fill="#2ea043" filter="url(#nodeGlow)"/>
<circle cx="435.5" cy="430.9" r="12.6" fill="#56d364" opacity="0.15"/>
<circle cx="432.3" cy="429.9" r="4.2" fill="#ffffff" opacity="0.08"/>
<text x="435.5" y="437.2" font-family="monospace" font-size="11" font-weight="700" fill="#c9d1d9" text-anchor="middle" dy="0.35em">Api</text>
<text x="435.5" y="472.2" font-family="monospace" font-size="7" fill="#484f58" text-anchor="middle" dy="0.35em">173 loc</text>
</g>
<g data-module="MTL_Tools.docs">
<circle cx="426.6" cy="387.1" r="52.5" fill="#2ea04355" opacity="0.1" filter="url(#softGlow)"/>
<circle cx="427.6" cy="388.1" r="21.0" fill="#000000" opacity="0.3"/>
<circle cx="426.6" cy="387.1" r="21.0" fill="#2ea043" filter="url(#nodeGlow)"/>
<circle cx="426.6" cy="380.8" r="12.6" fill="#56d364" opacity="0.15"/>
<circle cx="423.5" cy="379.7" r="4.2" fill="#ffffff" opacity="0.08"/>
<text x="426.6" y="387.1" font-family="monospace" font-size="11" font-weight="700" fill="#c9d1d9" text-anchor="middle" dy="0.35em">docs</text>
<text x="426.6" y="422.1" font-family="monospace" font-size="7" fill="#484f58" text-anchor="middle" dy="0.35em">101 loc</text>
</g>
<g data-module="MTL_Tools">
<circle cx="452.1" cy="342.9" r="52.5" fill="#2ea04355" opacity="0.1" filter="url(#softGlow)"/>
<circle cx="453.1" cy="343.9" r="21.0" fill="#000000" opacity="0.3"/>
<circle cx="452.1" cy="342.9" r="21.0" fill="#2ea043" filter="url(#nodeGlow)"/>
<circle cx="452.1" cy="336.6" r="12.6" fill="#56d364" opacity="0.15"/>
<circle cx="449.0" cy="335.6" r="4.2" fill="#ffffff" opacity="0.08"/>
<circle cx="463.6" cy="348.5" r="1.6" fill="#1b1f23" opacity="0.7"/>
<text x="452.1" y="342.9" font-family="monospace" font-size="11" font-weight="700" fill="#c9d1d9" text-anchor="middle" dy="0.35em">MTL_Tools</text>
<text x="452.1" y="377.9" font-family="monospace" font-size="7" fill="#484f58" text-anchor="middle" dy="0.35em">3 loc</text>
</g>
<circle cx="500.0" cy="400.0" r="105.5" fill="none" stroke="#da3633" stroke-width="0.5" stroke-dasharray="4 6" opacity="0.3"><animateTransform attributeName="transform" type="rotate" from="0 500.0 400.0" to="360 500.0 400.0" dur="60s" repeatCount="indefinite"/></circle>
<text x="500.0" y="780.0" font-family="monospace" font-size="9" fill="#30363d" text-anchor="middle" dy="0.35em">9 modules | 22356 lines | 100% healthy 0% moderate 0% complex | 502 dead</text>
<text x="985.0" y="790.0" font-family="monospace" font-size="10" fill="#161b22" text-anchor="end" dy="0.35em">canopy-code</text>
</svg>